<svg id="圖層_1" class="testsvg" data-name="圖層 1" xmlns="http://www.w3.org/2000/svg" viewBox="0 0 1138.63 745.1">
    <defs>
        <style>.cls-1{fill:#221f20;opacity:0.24;}.cls-2{fill:#a8a8a8;}</style>
    </defs>
    <rect class="cls-1" width="1138.63" height="745.1"/>
    <path class="cls-2 map-1 cls-test" d="M434.58,435.61c-2.58,1.45-5.15,2.92-7.7,4.44-4.39,2.61-8.76,5.38-12.33,9-9.61,9.83-12.09,24.57-12.35,38.32-.16,8.14.28,16.38-.1,24.5h1.3q18,6.87,35.57,14.77c4.48,2,9.09,4.2,12.24,8,4.91,5.85,5.26,14.16,5.38,21.79q.18,12.81.38,25.62l1.27,1.12,103.81-2.63c14.29-.36,30.7-1.77,39.09-13.34,5.61-7.72,6.47-26.68,6.47-26.68-4.13-2.19-7.81-5-9.93-9.08-1.6-3.08-2.12-6.58-2.54-10a214,214,0,0,1-1.53-23.32l-1.2,3.27c-2.86,3.24-8.06,2.46-12.17,1.09-10.71-3.58-20.63-9.32-31.47-12.52-3.81-1.13-7.71-1.93-11.54-3-9.28-2.63-18-6.87-26.69-11.09L473.65,457.9c-13.13-6.38-26.33-12.81-38.11-21.43"/>

    <path class="cls-2" d="M539.22,225.47c-28.81-11.3-59.57-18.91-85.9-35.18-3.27-2-6.55-4.26-8.65-7.47-17.08-.24-30.26,12.8-35.61,29-6.31,19.13,2.21,39.92.73,60-.72,9.77-3.82,19.25-8,28.13a34.28,34.28,0,0,1-5.91,9.41c-3.23,3.38-7.54,5.51-11.92,7.14-16.43,6.11-34.86,6-50.7,13.48-10.15,4.8-18.71,12.52-28.89,17.26-8.33,3.88-18.09,6-23.81,13.23-4.83,6.08-5.57,14.41-5.38,22.18.63,25.27,9,49.68,12.53,74.71,3.39,23.89-9.19,48.6-3,71.92,4.45,16.79,23,23,37.78,32.05a94.22,94.22,0,0,0,72.89,10.34c1.8-.49,3.72-1.14,4.78-2.67a8.19,8.19,0,0,0,1-4.57A263.31,263.31,0,0,0,400,530.06s2-28.9,2.25-42.65,2.74-28.49,12.35-38.32c3.57-3.66,7.94-6.43,12.33-9,19.64-11.69,40.67-21.05,59.6-33.85s36.13-29.78,43.53-51.41l.55-3.87c-6.22-2.47-12.5-5.11-17.61-9.43s-9-10.62-8.76-17.3c.25-8.51,6.62-15.37,11.89-22.05a110.81,110.81,0,0,0,23.26-74.75Z"/>
    <path class="cls-2" d="M539.18,225.45c13.25,5.2,26.08,11.16,37.88,19.11l.11.14,12.41,11.46c3.46,3.2,7,6.43,11.19,8.53,9.94,5,21.89,2.66,31.89-2.56,0,0,10.55-4.81,15.61-3.77s9.64,3.63,14.47,5.47c7.89,3,16.37,4.06,24.76,5.07,2.7.33,8.14,1.06,8.14,1.06,6,8.14,7.3,18.68,7.94,28.74A290.66,290.66,0,0,1,699.1,371c-.61,3.26-1.33,6.62-3.31,9.28-4.58,6.16-13.64,6.18-21.27,5.43a532.11,532.11,0,0,1-144-34.79c-6.22-2.47-12.5-5.11-17.61-9.43s-9-10.62-8.76-17.3c.25-8.51,6.62-15.37,11.89-22.05a110.81,110.81,0,0,0,23.26-74.75"/>
    <path class="cls-2" d="M685.92,388c-18.36,2.84-35.56,10.58-52.29,18.64-10.7,5.15-21.91,11-27.88,21.27a53.5,53.5,0,0,0-5,13.4,213.29,213.29,0,0,0-5.57,80.13c.42,3.44.94,6.94,2.54,10,3.31,6.39,10.45,9.65,17.15,12.29,4.09,1.62,8.42,3.21,12.79,2.69a27.71,27.71,0,0,0,7.87-2.61l32.57-14.58c7-3.14,14.06-6.31,20.17-10.94a92.5,92.5,0,0,0,13.23-13q7.35-8.37,14.33-17c6.58-8.18,13.08-16.91,15.43-27.14,1.63-7.13,1.14-14.57,2.2-21.81a51.77,51.77,0,0,1,13.15-27.5c4.53-4.89,9.95-8.84,15.09-13.08,11.23-9.26,21.16-20,31.05-30.65,4.58-4.94,9.23-10,12.09-16.08,4.37-9.3,4.14-20,3.57-30.28-.55-10-1.71-20.87-8.7-28l-3.16-5.44a38.84,38.84,0,0,0-17-14.28c-5.31-2.27-11.08-3.23-16.78-4.17-19.16-3.17-39-6.32-57.79-1.39l-9.33,1.6c6,8.14,7.3,18.68,7.94,28.74A290.66,290.66,0,0,1,699.1,371c-.61,3.26-1.33,6.62-3.31,9.28Z"/>
    <path class="cls-2" d="M705.35,267.86c18.78-4.93,38.63-1.78,57.79,1.39,5.7.94,11.46,1.9,16.78,4.17a38.91,38.91,0,0,1,17,14.28c1.72,2.6,3.28,5.52,6,7.05,4,2.23,9,.71,13-1.44,18.11-9.72,27.79-30.66,29.93-51.1,1.42-13.6-.2-28.15-8.16-39.28-3.59-5-8.3-9.12-13.12-13-4.14-3.33-8.48-6.59-13.49-8.38s-10.85-1.94-15.43.77l-7.7,3.63c-8.74,3.6-18.6,4.38-26.79,9.09-9.15,5.25-15.06,14.75-19.25,24.43s-7.06,19.95-12.13,29.2S705.35,267.86,705.35,267.86Z"/>
    <path class="cls-2" d="M710.47,150c4.08.51,8.53.67,11.95-1.61s4.79-7.87,1.62-10.49c-1.47-1.22-3.49-1.49-5.4-1.68-10.1-1-20.26-.87-30.4-.73-24.5.35-49.12.7-73.24,5-24.64,4.37-48.45,12.78-73.19,16.48-29.54,4.42-60.1,2.09-88.92,9.92-3.39.92-7,2.17-8.92,5.12-2.09,3.23-1.41,7.66.7,10.88s5.38,5.45,8.65,7.47c38.41,23.74,86.28,29.05,123.74,54.27l.11.14,12.41,11.46c3.46,3.2,7,6.43,11.19,8.53,11.39,5.68,25.42,1.84,36.14-5a10.52,10.52,0,0,0,3.83-3.57,11.26,11.26,0,0,0,.93-5.47l.13-33c.05-15.66.27-32,7.46-45.92a24.5,24.5,0,0,1,6-7.95c3.81-3.12,8.78-4.34,13.57-5.47,14.14-3.36,28.32-6.72,42.76-8.39"/>
    <path class="cls-2" d="M634,262.13c3.31-4,9.2-4.81,14.26-3.77s9.64,3.63,14.47,5.47c7.89,3,16.37,4.06,24.76,5.07,6.35.77,12.87,1.53,19.09,0,10.24-2.53,18.09-11,23.16-20.22s7.94-19.52,12.13-29.2S752,200.29,761.13,195c8.19-4.71,18-5.49,26.79-9.09s17-12.18,14.81-21.38-13.13-13-22.42-15.22l-40-9.47c-4.95-1.18-11-2-14.36,1.86l-3.5,6.6c-3.42,2.28-7.87,2.12-11.95,1.61,0,0-27.5,4.94-41.64,8.3-4.79,1.13-9.76,2.35-13.57,5.47a24.5,24.5,0,0,0-6,7.95c-7.19,13.92-7.41,30.26-7.46,45.92l-.13,33a11.26,11.26,0,0,1-.93,5.47,10.52,10.52,0,0,1-3.83,3.57"/>
    <path class="cls-2" d="M402.1,511.91a74.56,74.56,0,0,1-2.41,16.55l.26,1.6a263.31,263.31,0,0,1,1.26,34.39,8.19,8.19,0,0,1-1,4.57c-1.06,1.53-3,2.18-4.78,2.67a90.88,90.88,0,0,1-15.18,2.76l.25,1.8,3.75,31.81c.37,3.18.78,6.44,2.34,9.23,3.31,5.9,10.65,8,17.24,9.47,8.1,1.86,16.45,3.73,24.64,2.3s16.23-7,17.91-15.13a24.4,24.4,0,0,1,1.06-4.75c1-2.27,3.05-3.82,4.66-5.69,4.88-5.7,5-13.93,4.91-21.44q-.2-12.81-.38-25.62c-.12-7.63-.47-15.94-5.38-21.79-3.15-3.76-7.76-5.94-12.24-8q-17.57-7.9-35.57-14.77Z"/>
</svg>