<svg id="圖層_1" data-name="圖層 1" xmlns="http://www.w3.org/2000/svg" viewBox="0 0 841.89 595.28"><defs><style>.cls-1{fill:#221f20;opacity:0.24;}.cls-2{fill:#a8a8a8;}</style></defs><rect class="cls-1" width="841.89" height="595.28"/><path class="cls-2" d="M540.7,185.45c18.79-4.93,38.63-1.78,57.79,1.39,5.7.94,11.47,1.9,16.78,4.17a38.84,38.84,0,0,1,17,14.28c1.73,2.6,3.28,5.52,6,7.05,4,2.23,9,.71,13-1.45,18.1-9.72,27.78-30.66,29.92-51.09,1.42-13.6-.2-28.16-8.15-39.28-3.6-5-8.31-9.13-13.12-13-4.15-3.34-8.48-6.59-13.49-8.38s-10.86-1.94-15.43.77l-7.71,3.63c-8.74,3.6-18.59,4.38-26.79,9.09-9.15,5.25-15.06,14.74-19.25,24.43s-7.06,19.95-12.13,29.2S540.7,185.45,540.7,185.45Z"/><path class="cls-2" d="M545.83,67.54c4.07.51,8.52.66,11.94-1.61s4.79-7.87,1.63-10.49c-1.48-1.22-3.5-1.5-5.41-1.69-10.09-1-20.26-.86-30.4-.72-24.5.35-49.12.7-73.24,5-24.63,4.36-48.45,12.77-73.19,16.48-29.54,4.42-60.09,2.09-88.92,9.92-3.39.91-7,2.17-8.92,5.12-2.09,3.22-1.41,7.66.7,10.87s5.38,5.46,8.66,7.48c38.41,23.74,86.27,29.05,123.73,54.26l.11.14,12.41,11.47c3.46,3.19,7,6.43,11.19,8.53,11.39,5.68,25.42,1.84,36.14-5a10.63,10.63,0,0,0,3.84-3.57,11.37,11.37,0,0,0,.92-5.47l.13-33.05c.06-15.66.27-32,7.46-45.91a24.67,24.67,0,0,1,6-8c3.8-3.11,8.77-4.33,13.56-5.46,14.14-3.36,28.32-6.72,42.76-8.39"/><path class="cls-2" d="M469.36,179.71c3.31-4,9.2-4.81,14.26-3.76s9.64,3.63,14.47,5.47c7.89,3,16.37,4.05,24.76,5.07,6.35.76,12.88,1.52,19.09,0,10.24-2.53,18.09-11,23.16-20.22s7.94-19.52,12.13-29.2,10.1-19.18,19.25-24.43c8.2-4.71,18-5.49,26.79-9.09s17-12.19,14.82-21.38-13.14-13-22.42-15.22l-40-9.48c-5-1.17-11-2-14.36,1.87l-3.5,6.6c-3.42,2.27-7.87,2.12-11.94,1.61,0,0-27.51,4.94-41.65,8.3-4.79,1.13-9.76,2.35-13.56,5.46a24.67,24.67,0,0,0-6,8c-7.19,13.92-7.4,30.25-7.46,45.91L477,168.22a11.37,11.37,0,0,1-.92,5.47,10.63,10.63,0,0,1-3.84,3.57"/></svg>